#!OML:ASF F:\VICON\USERDATA\INSTALL\rory3\rory3.ASF
:FULLY-SPECIFIED
:DEGREES
128
root 14.7096 17.5996 -1.28961 -88.2946 -83.2762 88.0444
lowerback 12.3282 2.08011 -0.26202
upperback 0.0439103 2.62989 -0.982281
thorax -6.83898 1.26383 -1.36031
lowerneck -23.4942 -1.62003 -10.5032
upperneck 30.0268 -0.514134 5.88457
head 14.2849 -0.73513 4.07321
rclavicle 1.36167e-014 -7.15625e-015
rhumerus -38.3189 -24.6843 -65.3809
rradius 33.5076
rwrist 5.09777
rhand -16.6084 7.80843
rfingers 7.12502
rthumb 9.6132 -21.9522
lclavicle 1.36167e-014 -7.15625e-015
lhumerus -34.1571 18.9352 75.4943
lradius 26.5529
lwrist -8.62058
lhand -20.0215 23.5762
lfingers 7.12502
lthumb 6.31903 53.462
rfemur -2.95681 11.9281 -2.70222
rtibia 28.7214
rfoot -11.1001 -11.9339
rtoes 10.0506
lfemur -2.31474 -5.7771 -14.6892
ltibia 17.0801
lfoot -9.01189 -4.32082
ltoes -29.1392
129
root 14.7067 17.6257 -1.15961 -89.1098 -83.2718 88.8373
lowerback 12.3009 2.07898 -0.142906
upperback 0.143899 2.6448 -0.978944
thorax -6.71156 1.26785 -1.42215
lowerneck -23.5075 -1.65123 -10.5413
upperneck 30.0088 -0.565763 5.95283
head 14.2855 -0.750868 4.09827
rclavicle -1.14798e-014 -9.54166e-015
rhumerus -38.4606 -25.1317 -65.2592
rradius 33.4734
rwrist 4.79728
rhand -16.5858 7.84735
rfingers 7.12502
rthumb 9.63496 -21.9123
lclavicle -1.14798e-014 -9.54166e-015
lhumerus -33.7581 18.6929 75.8218
lradius 26.5307
lwrist -8.75492
lhand -20.0891 23.7627
lfingers 7.12502
lthumb 6.25375 53.6504
rfemur -3.27597 11.8213 -2.78297
rtibia 29.1805
rfoot -9.95058 -13.0692
rtoes 13.3045
lfemur -2.04076 -5.89387 -15.2433
ltibia 16.7068
lfoot -9.0144 -3.9669
ltoes -28.8179
130
root 14.7089 17.6479 -1.03008 -88.9787 -83.3442 88.7526
lowerback 12.2568 2.0043 0.0163515
upperback 0.170991 2.57285 -0.921245
thorax -6.65495 1.22923 -1.4355
lowerneck -23.4482 -1.62697 -10.6059
upperneck 30.0415 -0.504732 5.92199
head 14.2811 -0.739579 4.10789
rclavicle -4.27884e-014 2.3059e-014
rhumerus -38.5754 -25.3324 -65.2202
rradius 33.3887
rwrist 4.70495
rhand -16.268 7.74891
rfingers 7.12502
rthumb 9.94158 -21.9963
lclavicle -4.27884e-014 2.3059e-014
lhumerus -33.4923 18.4876 76.1168
lradius 26.5421
lwrist -8.75287
lhand -20.3881 23.6674
lfingers 7.12502
lthumb 5.96515 53.5634
rfemur -3.69056 11.5113 -2.78723
rtibia 29.6775
rfoot -8.96076 -14.2056
rtoes 17.7096
lfemur -1.89059 -5.8769 -15.6765
ltibia 16.2819
lfoot -8.98287 -3.7391
ltoes -28.9483
131
root 14.7101 17.6676 -0.915385 -90.4128 -83.4588 90.305
lowerback 12.1611 2.0452 -0.0891559
upperback 0.152504 2.62673 -0.742683
thorax -6.6329 1.26279 -1.19426
lowerneck -23.4416 -1.64416 -10.6441
upperneck 30.2036 -0.475919 5.77614
head 14.3496 -0.761494 4.06466
rclavicle 1.65985e-014 2.22639e-014
rhumerus -38.652 -25.3544 -65.1148
rradius 33.2326
rwrist 4.51872
rhand -16.1849 7.7107
rfingers 7.12502
rthumb 10.0218 -22.0307
lclavicle 1.65985e-014 2.22639e-014
lhumerus -33.3166 18.0562 76.6163
lradius 26.6979
lwrist -8.61789
lhand -20.112 23.5359
lfingers 7.12502
lthumb 6.23171 53.4242
rfemur -4.27769 11.4364 -2.65486
rtibia 30.2385
rfoot -7.97988 -15.7609
rtoes 21.6159
lfemur -1.72812 -5.4872 -15.985
ltibia 15.7338
lfoot -8.94813 -3.71857
ltoes -28.8784
132
root 14.7122 17.687 -0.801185 -91.8374 -83.496 91.8303
lowerback 12.0856 2.11519 -0.156832
upperback 0.157104 2.71881 -0.634861
thorax -6.59258 1.31241 -1.05564
lowerneck -23.3542 -1.69648 -10.5503
upperneck 30.2171 -0.524258 5.54
head 14.3431 -0.807582 3.94018
rclavicle 1.10325e-014 -1.82882e-014
rhumerus -38.7393 -25.4963 -65.0102
rradius 33.0817
rwrist 4.27312
rhand -16.3348 7.883
rfingers 7.12502
rthumb 9.87718 -21.8653
lclavicle 1.10325e-014 -1.82882e-014
lhumerus -33.0439 17.5433 77.1736
lradius 26.8436
lwrist -8.62511
lhand -19.7906 23.7626
lfingers 7.12502
lthumb 6.54199 53.6416
rfemur -4.87603 11.3603 -2.55804
rtibia 30.8618
rfoot -6.8622 -17.3251
rtoes 24.2437
lfemur -1.48771 -4.77506 -16.3426
ltibia 15.0779
lfoot -8.97374 -3.97472
ltoes -28.9492
133
root 14.7141 17.702 -0.686619 -92.7174 -83.5046 92.7691
lowerback 12.0316 2.09007 -0.197977
upperback 0.183077 2.68386 -0.57747
thorax -6.53986 1.29796 -0.96308
lowerneck -23.29 -1.64363 -10.3946
upperneck 30.1483 -0.464002 5.38864
head 14.2917 -0.783026 3.85817
rclavicle 4.25399e-014 -9.54166e-015
rhumerus -38.8081 -25.6694 -65.0434
rradius 33.0096
rwrist 4.37772
rhand -16.2288 8.10541
rfingers 7.12502
rthumb 9.97945 -21.638
lclavicle 4.25399e-014 -9.54166e-015
lhumerus -32.8141 17.0781 77.563
lradius 27.1011
lwrist -8.49938
lhand -19.8864 23.7625
lfingers 7.12502
lthumb 6.44947 53.6443
rfemur -5.44323 10.9985 -2.51919
rtibia 31.5103
rfoot -6.2524 -18.2991
rtoes 27.5361
lfemur -1.1883 -4.05646 -16.7807
ltibia 14.3938
lfoot -9.12923 -4.0444
ltoes -29.9374
134
root 14.7166 17.7135 -0.579611 -93.5837 -83.3769 93.7173
lowerback 11.906 2.05712 -0.505889
upperback 0.230765 2.59977 -0.551469
thorax -6.43481 1.2673 -0.741789
lowerneck -23.3073 -1.5459 -10.2471
upperneck 30.1416 -0.372248 5.36996
head 14.2812 -0.728627 3.84198
rclavicle -8.74653e-015 -3.18055e-015
rhumerus -38.7312 -25.7972 -65.1791
rradius 32.8373
rwrist 4.99586
rhand -15.8945 8.26123
rfingers 7.12502
rthumb 10.3019 -21.4665
lclavicle -8.74653e-015 -3.18055e-015
lhumerus -32.5938 16.6642 77.8044
lradius 27.413
lwrist -8.46767
lhand -19.9591 23.5759
lfingers 7.12502
lthumb 6.37934 53.4598
rfemur -6.04219 10.5785 -2.60522
rtibia 32.1819
rfoot -6.41124 -18.9421
rtoes 30.1896
lfemur -0.923415 -3.48444 -17.3352
ltibia 13.747
lfoot -9.3007 -4.10859
ltoes -30.2684
